
        <svg xmlns="http://www.w3.org/2000/svg" xmlns:xlink="http://www.w3.org/1999/xlink" version="1.1" width="3250" height="1262.5" viewBox="0 0 3250 1262.5">
			
			<g transform="scale(12.5) translate(10, 10)">
				<defs id="SvgjsDefs1355"/><g id="SvgjsG1356" featureKey="rootContainer" transform="matrix(1,0,0,1,0,0)" fill="#fff"><rect xmlns="http://www.w3.org/2000/svg" width="240" height="81" rx="10" ry="10"/></g><g id="SvgjsG1357" featureKey="q4o0QG-0" transform="matrix(2.6802464840322053,0,0,2.6802464840322053,18.981506588480883,6.6523724583979735)" fill="#000000"><path d="M5.72 5.119999999999999 l1.64 0.48 l0.22 0.76 l0.14 2.64 l-0.12 0.94 l-1.36 -0.04 l-1.64 0.06 l0 -0.82 l-0.18 -1.06 l-2.32 -0.02 l-0.22 0.58 l0.2 2.24 l1.46 0.04 c0.78 0.02 1.54 0.04 1.7 0.1 c0.1 0.06 0.66 0.08 1.22 0.14 l1.04 0.06 l0.22 3.36 l0 1.74 l-0.18 3.02 l-1.58 0.76 l-3.86 0.04 l-1.38 -0.66 l-0.34 -1.78 l0.08 -2.68 l0.06 -0.82 l0.76 0.04 l1.68 0.22 l0.06 2.8 l1.82 0.14 l0.06 -4.08 l-1.22 -0.04 l-1.46 -0.04 l-1.52 -0.4 l-0.18 -4.26 l0.28 -2.88 l1.94 -0.6 z M9.1 8.88 l3.2 0.08 l-0.16 2.5 l0.24 5.08 l-0.14 3.38 l-0.28 0.04 l-2.8 -0.06 l-0.12 -0.92 l-0.04 -5.36 z M9.22 4.98 l3.02 0.04 l0.14 0.78 l0 1.34 l-0.08 0.72 l-3.2 0.02 l-0.1 -1.3 l-0.04 -1.4 z M13.66 20 l0.24 -14.5 l2.38 -0.18 l1.08 0.12 l1.02 6.94 l0.6 -7.16 l4.1 0.5 c0.02 0.76 0.04 1.54 0.04 2.36 c0.08 1.38 0.18 3.18 0.18 4.84 c0.06 2.68 -0.02 4.6 0.16 7.12 l-1.76 -0.04 l-0.14 -8.98 l-0.38 -0.08 l-1 7.96 l-0.34 0.98 l-2.12 0.12 l-1.02 -8.4 l-0.6 0.14 l0.22 8.38 z M32.32 7.199999999999999 l-0.08 10.84 l-0.22 1.44 l-0.64 0.52 l-2.04 0.22 l-3.74 -0.36 l-0.54 -0.54 l-0.38 -0.82 l0.08 -3.44 c0 -1.5 0.02 -2.86 0.06 -4.06 c-0.02 -2.04 0 -4.08 0.06 -4.18 c0 -0.08 0.12 -0.42 0.34 -0.74 l0.26 -0.64 l3.16 -0.3 l2.26 0.28 l1.12 0.44 z M28.700000000000003 17.3 l0.74 -0.3 l0.24 -7.48 l-0.48 -0.28 l-1.92 -0.04 l-0.18 0.68 l0.04 2.82 l0 4.48 l0.32 0.06 z M33.82 5.26 l2.56 0.08 l2.16 10.14 l0.18 -1.06 l-0.58 -9.1 l2.22 -0.04 l0.88 0.2 l-0.4 14.4 l-1.78 0.24 l-1.78 -0.1 l-1.18 -8.78 l-0.42 -1.3 l0.06 10.04 l-2.06 0.18 l-0.1 -8.58 z M50.739999999999995 5.039999999999999 l0.54 0.22 l0.74 6 l0.26 -0.04 l1.04 -6.18 l3.56 0.42 c0.02 0.64 0.12 2.48 0.18 4.14 c0.02 0.98 0.04 2.06 0.04 3.2 l0.12 5.08 l0 1.66 l-0.1 0.46 l0 0.12 c-0.26 0.02 -0.52 0.02 -0.8 0.02 c-0.42 0 -0.96 0.04 -1.38 -0.02 l-0.5 -7.98 l-0.38 0.2 l-1.02 7.62 l-1.76 0.06 l-1.1 -7.58 l-0.84 -0.28 l-0.22 7.92 l-1.84 0 l0.24 -14.8 z M65.96000000000001 7.199999999999999 l-0.08 10.84 l-0.22 1.44 l-0.64 0.52 l-2.04 0.22 l-3.74 -0.36 l-0.54 -0.54 l-0.38 -0.82 l0.08 -3.44 c0 -1.5 0.02 -2.86 0.06 -4.06 c-0.02 -2.04 0 -4.08 0.06 -4.18 c0 -0.08 0.12 -0.42 0.34 -0.74 l0.26 -0.64 l3.16 -0.3 l2.26 0.28 l1.12 0.44 z M62.34 17.3 l0.74 -0.3 l0.24 -7.48 l-0.48 -0.28 l-1.92 -0.04 l-0.18 0.68 l0.04 2.82 l0 4.48 l0.32 0.06 z M69.44 7.699999999999999 l0.06 1.58 l0 2.06 l0.72 0 l0.7 -0.06 l0.46 -0.44 l0 -0.2 l0.08 -1.36 l-0.16 -1.22 l0 -0.04 l-0.22 -0.8 l-0.54 -0.24 l-1.04 0 z M69.32000000000001 5.24 l2.62 0.04 l1.24 0.14 l1.02 0.58 l0.8 1.32 l-0.26 3.86 l-0.32 0.6 l-1.18 0.38 l1.34 1 l0.36 0.98 l0 1.6 l-0.18 4.24 l-0.52 0.12 l-2.06 -0.1 l-0.1 -3.9 l-0.14 -2.06 l-0.48 -0.52 l-0.92 -0.3 l0 1.48 l0 3.72 l0.06 1.56 l-1.94 -0.02 l-0.92 0.06 l-0.32 -0.06 l0 -2.88 l0 -2.1 l0.12 -2.72 l-0.08 -4.68 l-0.04 -2.32 z"/></g>
			</g>
		</svg>
	